<svg role="img" xmlns="http://www.w3.org/2000/svg" viewBox="-100 -100 600 450" aria-label="external"><desc>External Link</desc><g fill="none"><g id="external_link_svg" fill="#767676"><path d="M216 12.1L216 36.1C216 42.7 221.4 48.1 228 48.1L302 48.1 194.1 156C191.8 158.3 190.5 161.3 190.5 164.5 190.5 167.7 191.8 170.7 194.1 173L211 189.9C213.3 192.2 216.3 193.5 219.5 193.5 222.7 193.5 225.8 192.2 228 189.9L335.9 82 336 156C336 162.6 341.4 168 348 168L372 168C378.6 168 384 162.6 384 156L384 12C384 5.4 378.6 0 372 0L228 0.1C221.4 0.1 216 5.5 216 12.1Z" id="Path"/><path d="M288 192L288 324C288 330.6 282.6 336 276 336L60 336C53.4 336 48 330.6 48 324L48 108C48 101.4 53.4 96 60 96L192 96 192 48 12 48C5.4 48 0 53.4 0 60L0 372C0 378.6 5.4 384 12 384L324 384C330.6 384 336 378.6 336 372L336 192 288 192Z" id="Path"/></g></g></svg>